<svg xmlns="http://www.w3.org/2000/svg" xmlns:xlink="http://www.w3.org/1999/xlink" width="100%" height="100%" version="1.1" viewBox="0 0 24 24" xml:space="preserve" style="fill-rule:evenodd;clip-rule:evenodd;stroke-linejoin:round;stroke-miterlimit:2"><g><path d="M12,2C6.514,2 2,6.514 2,12C2,17.486 6.514,22 12,22C17.486,22 22,17.486 22,12C22,6.514 17.486,2 12,2Z" transform="matrix(1.2,0,0,1.2,-2.4,-2.4)" style="fill-rule:nonzero"/></g><g><path d="M2.5,1C2.22,1 2,1.22 2,1.5L2,14.5C2,14.78 2.22,15 2.5,15L13.5,15C13.78,15 14,14.78 14,14.5L14,4L11,1L2.5,1ZM4,3L10,3L10,4L4,4L4,3ZM4,6L9,6L9,7L4,7L4,6ZM4,9L12,9L12,10L4,10L4,9ZM4,12L8,12L8,13L4,13L4,12Z" transform="matrix(0.833333,0,0,0.833333,5.33333,5.16667)" style="fill:#fff;fill-rule:nonzero"/></g></svg>