<svg xmlns="http://www.w3.org/2000/svg" width="24" height="24" version="1.1" viewBox="0 0 24 24"><g id="icon" fill="none" fill-rule="evenodd" stroke="none" stroke-width="1"><g id="vector" fill-rule="nonzero"><polygon id="path" fill="#D5D5D5" stroke="#000" stroke-opacity="0" points="0 0 24 0 24 24 0 24"/><path id="Shape" fill="#FFF" d="M6.48250001,5 C6.2123,5 6,5.2123 6,5.48250001 L6,18.0275002 C6,18.2977002 6.2123,18.5100002 6.48250001,18.5100002 L17.0975002,18.5100002 C17.3677002,18.5100002 17.5800002,18.2977002 17.5800002,18.0275002 L17.5800002,7.89500005 L14.6850001,5 L6.48250001,5 Z M7.93000003,6.93000003 L13.7200001,6.93000003 L13.7200001,7.89500005 L7.93000003,7.89500005 L7.93000003,6.93000003 Z M7.93000003,9.82500008 L12.7550001,9.82500008 L12.7550001,10.7900001 L7.93000003,10.7900001 L7.93000003,9.82500008 Z M7.93000003,12.7200001 L15.6500002,12.7200001 L15.6500002,13.6850001 L7.93000003,13.6850001 L7.93000003,12.7200001 Z M7.93000003,15.6150002 L11.7900001,15.6150002 L11.7900001,16.5800002 L7.93000003,16.5800002 L7.93000003,15.6150002 Z"/></g></g></svg>